 <svg  version="1.0" xmlns="http://www.w3.org/2000/svg"  width="300.000000pt" height="300.000000pt" viewBox="0 0 300.000000 300.000000"  preserveAspectRatio="xMidYMid meet">  <g transform="translate(0.000000,300.000000) scale(0.100000,-0.100000)" fill="#09ceca" stroke="none"> <path d="M1450 2260 c-340 -40 -609 -298 -650 -622 -52 -422 310 -808 760 -810 169 -1 296 36 436 128 224 147 341 372 338 649 -2 140 -27 241 -95 379 -64 130 -159 238 -159 181 0 -9 18 -39 40 -67 37 -45 98 -163 128 -243 6 -16 18 -65 27 -107 77 -386 -157 -762 -535 -857 -57 -15 -102 -18 -190 -16 -225 6 -391 82 -533 244 -219 251 -228 584 -22 834 137 165 335 259 550 260 119 1 195 -17 313 -74 96 -46 195 -137 226 -206 20 -45 43 -62 52 -38 9 23 -61 128 -129 191 -135 127 -360 197 -557 174z"/> <path d="M1385 2134 c-38 -8 -102 -31 -141 -50 -160 -76 -297 -236 -222 -260 16 -5 27 0 40 17 124 158 282 237 452 226 99 -6 162 -25 240 -72 66 -39 99 -42 104 -8 4 24 -34 56 -113 96 -116 57 -247 76 -360 51z m200 -25 c38 -15 40 -16 66 -18 11 0 18 -5 15 -9 -3 -5 -36 -2 -73 6 -42 8 -91 11 -128 8 -97 -10 -142 -13 -118 -9 12 2 26 10 31 16 14 17 170 21 207 6z"/> <path d="M1862 1898 c-6 -6 -12 -20 -12 -30 0 -9 -9 -22 -20 -28 -26 -14 -26 -50 0 -57 17 -4 20 -16 23 -87 l3 -81 2 82 c2 73 0 83 -18 93 -25 14 -26 37 -1 45 12 3 21 17 23 33 4 35 35 42 41 10 5 -21 5 -21 4 2 -2 28 -26 37 -45 18z"/> <path d="M1382 1858 c-13 -13 -18 -343 -4 -351 4 -3 6 73 4 169 -3 152 -1 175 13 180 25 10 30 -2 36 -84 l6 -77 1 76 c2 73 -7 99 -33 99 -6 0 -16 -5 -23 -12z"/> <path d="M1943 1864 c26 -8 17 -36 -16 -52 -26 -12 -27 -17 -27 -83 0 -62 2 -71 20 -76 11 -3 20 -14 20 -23 0 -22 -30 -34 -62 -26 l-23 6 23 -12 c17 -8 28 -8 47 0 31 14 34 52 5 59 -17 5 -20 14 -20 72 0 65 1 67 31 78 24 9 30 17 27 35 -2 14 -11 24 -23 25 -17 2 -17 1 -2 -3z"/> <path d="M1126 1819 c-47 -11 -64 -24 -21 -16 112 22 109 23 101 -9 -6 -22 -5 -26 4 -18 7 7 10 20 8 30 -4 22 -35 27 -92 13z"/> <path d="M1685 1793 c-45 -7 -55 -20 -54 -72 2 -31 3 -36 6 -16 8 69 13 77 37 73 13 -3 32 1 42 9 10 7 14 12 8 12 -5 -1 -22 -4 -39 -6z"/> <path d="M1776 1790 c7 -8 14 -24 17 -35 4 -19 5 -19 6 1 0 12 -7 28 -16 35 -16 12 -17 12 -7 -1z"/> <path d="M976 1777 c-10 -7 -16 -22 -14 -33 3 -16 12 -19 51 -17 l46 1 3 -146 c3 -136 4 -147 22 -150 38 -8 46 23 46 174 0 127 2 143 18 147 13 4 11 5 -5 6 -23 1 -23 0 -23 -140 0 -140 -8 -179 -35 -179 -12 0 -15 27 -17 148 l-3 147 -45 0 c-52 0 -62 21 -20 42 15 8 19 13 9 13 -8 0 -23 -6 -33 -13z"/> <path d="M2140 1771 c-5 -11 -10 -62 -10 -113 -1 -225 -97 -410 -278 -531 -39 -26 -72 -47 -75 -47 -3 0 -18 -5 -34 -12 -42 -17 -50 -18 -154 -25 -190 -12 -352 51 -494 192 -45 44 -90 97 -100 118 -23 44 -53 57 -71 32 -16 -22 -11 -36 41 -110 108 -152 261 -259 430 -300 66 -16 218 -19 280 -5 229 49 428 231 503 458 30 91 44 320 22 347 -17 21 -47 19 -60 -4z m39 -147 c-1 -36 -8 -87 -15 -112 -29 -115 -35 -132 -45 -132 -6 0 -7 6 -2 13 4 6 8 17 10 22 1 6 9 35 17 65 15 55 24 117 25 178 1 17 4 32 7 32 3 0 4 -30 3 -66z m-254 -499 c-97 -85 -208 -128 -342 -130 -103 -3 -143 2 -143 17 0 6 6 8 14 5 31 -12 174 -7 236 8 71 17 187 70 210 96 8 9 54 39 60 39 3 0 -13 -16 -35 -35z m-558 -91 c14 -3 34 -9 42 -14 33 -19 -35 -10 -74 10 -22 11 -45 20 -53 20 -7 0 -11 4 -8 9 4 5 19 3 36 -5 16 -9 42 -17 57 -20z"/> <path d="M1515 1758 c-22 -12 -45 -37 -45 -50 0 -5 10 2 23 16 50 56 117 34 117 -39 0 -33 -2 -35 -40 -41 -44 -7 -65 -26 -56 -49 9 -25 36 -29 54 -9 16 17 16 17 0 5 -10 -7 -25 -11 -33 -7 -25 9 -17 35 13 42 68 14 75 21 69 70 -7 65 -50 91 -102 62z"/> <path d="M1707 1742 c-11 -12 -17 -41 -19 -97 -3 -72 -5 -80 -23 -80 -17 0 -21 9 -26 50 l-6 50 -1 -53 c-2 -40 2 -54 14 -59 36 -13 49 10 54 98 4 69 8 84 22 87 15 3 18 -8 20 -80 3 -80 4 -83 27 -83 13 0 25 6 27 13 1 7 0 8 -3 2 -2 -5 -13 -10 -24 -10 -17 0 -19 8 -19 79 0 88 -14 115 -43 83z"/> <path d="M2000 1747 c-17 -8 -25 -21 -25 -37 0 -24 3 -25 50 -22 30 2 56 10 65 20 13 14 13 15 0 5 -8 -6 -35 -13 -60 -15 -39 -3 -45 0 -45 17 0 14 11 23 40 31 22 7 31 13 20 13 -11 0 -31 -5 -45 -12z"/> <path d="M1523 1713 c-14 -5 -18 -39 -5 -47 5 -3 8 5 8 17 -1 13 6 23 17 25 18 4 24 -23 7 -31 -6 -3 -5 -4 2 -3 7 2 13 11 13 22 0 19 -19 27 -42 17z"/> <path d="M1199 1689 c-19 -19 -20 -23 -5 -37 12 -13 20 -13 41 -4 26 12 45 9 45 -8 0 -5 -8 -11 -17 -14 -14 -4 -14 -4 2 -3 25 3 32 35 10 43 -9 4 -27 1 -41 -6 -38 -21 -53 2 -18 29 15 11 22 21 15 21 -6 0 -20 -9 -32 -21z"/> <path d="M1315 1686 c12 -18 15 -45 13 -107 -3 -79 -4 -84 -25 -84 -13 0 -27 -6 -33 -13 -7 -8 -7 -9 1 -3 6 5 18 7 25 4 32 -12 44 17 44 104 0 82 -10 123 -31 123 -5 0 -2 -11 6 -24z"/> <path d="M1430 1614 c0 -41 -5 -85 -11 -97 -10 -21 -10 -21 5 -3 12 14 16 42 16 98 0 43 -2 78 -5 78 -3 0 -5 -34 -5 -76z"/> <path d="M1463 1625 c0 -38 2 -53 4 -32 2 20 2 52 0 70 -2 17 -4 1 -4 -38z"/> <path d="M1200 1598 c-45 -49 -22 -140 34 -137 21 1 21 1 1 6 -35 9 -45 24 -45 68 0 35 5 48 26 64 15 12 22 21 16 21 -6 0 -20 -10 -32 -22z"/> <path d="M1597 1590 c13 -18 7 -32 -22 -48 -11 -6 -15 -12 -9 -12 7 0 22 9 35 19 24 19 24 20 5 38 -11 10 -15 11 -9 3z"/> <path d="M1270 1551 c0 -28 -21 -37 -37 -16 -7 11 -13 14 -13 8 0 -17 26 -34 44 -27 14 5 24 54 11 54 -3 0 -5 -9 -5 -19z"/> <path d="M1772 1533 c-5 -10 -7 -82 -4 -160 4 -132 6 -143 23 -143 11 0 19 4 19 8 0 4 15 6 34 4 52 -6 76 31 76 119 0 56 -4 73 -20 89 -24 24 -43 25 -60 5 -25 -30 -38 -18 -30 27 5 23 6 48 3 55 -7 19 -31 16 -41 -4z m98 -176 c0 -60 -10 -80 -36 -75 -19 3 -20 14 -15 115 1 12 30 23 44 16 4 -2 7 -28 7 -56z"/> <path d="M1517 1483 c-4 -3 -7 -34 -7 -68 l0 -63 -39 -9 -38 -10 5 63 c4 54 2 65 -12 70 -10 4 -21 3 -26 -2 -10 -11 -16 -311 -6 -321 4 -4 15 -2 24 4 13 8 17 25 17 76 l0 66 38 9 37 10 0 -70 c0 -66 1 -69 23 -66 22 3 22 6 25 161 2 147 1 157 -16 157 -10 0 -22 -3 -25 -7z"/> <path d="M1697 1433 c-4 -3 -7 -43 -7 -88 0 -60 -4 -86 -15 -95 -28 -23 -37 -1 -34 84 3 75 2 81 -16 81 -19 0 -20 -7 -20 -105 0 -102 1 -105 23 -108 13 -2 31 0 40 4 9 4 28 8 42 8 25 1 25 1 28 114 2 104 1 112 -16 112 -10 0 -22 -3 -25 -7z"/> <path d="M1230 1368 c-25 -6 -40 -13 -34 -15 6 -2 31 1 55 6 31 7 47 7 58 -2 11 -10 13 -9 9 3 -6 19 -31 21 -88 8z"/> <path d="M1103 1333 c-17 -6 -16 -52 1 -59 7 -3 29 0 47 5 l34 11 -37 -5 c-41 -6 -54 10 -30 38 15 17 9 20 -15 10z"/> </g> </svg> 